<svg version="1.1" id="Capa_1" xmlns="http://www.w3.org/2000/svg" xmlns:xlink="http://www.w3.org/1999/xlink" x="0px" y="0px" width="20px" height="20px" viewBox="0 0 49.861 49.861" enable-background="new 0 0 49.861 49.861" xml:space="preserve">
	<g>
		<path d="M38.834,41.747c0.182,0.556-0.526,1.154-1.027,0.791c-0.267-0.192-0.532-0.388-0.799-0.58
			c-3.858-2.803-7.716-5.605-11.574-8.409c-0.148,0.108-0.296,0.217-0.445,0.323c-3.977,2.89-7.953,5.776-11.929,8.666
			c-0.501,0.363-1.209-0.235-1.028-0.791c0.102-0.313,0.204-0.626,0.305-0.938c1.471-4.524,2.94-9.049,4.411-13.573
			c-0.109-0.079-0.22-0.159-0.331-0.239c-3.976-2.89-7.952-5.776-11.928-8.667c-0.536-0.39-0.392-1.305,0.354-1.305
			c0.329,0,0.657,0,0.986,0c4.746,0,9.491,0,14.236,0c0.046-0.142,0.092-0.283,0.138-0.424c1.509-4.642,3.018-9.284,4.525-13.927
			c0.019-0.23,0.168-0.397,0.362-0.492c0.026-0.015,0.053-0.026,0.079-0.036c0.047-0.018,0.095-0.026,0.144-0.034
			C25.35,2.106,25.387,2.1,25.425,2.1c0.053-0.001,0.101,0.006,0.151,0.016c0.037,0.007,0.072,0.014,0.107,0.026
			c0.036,0.013,0.068,0.027,0.103,0.047c0.191,0.096,0.335,0.262,0.354,0.49c0.091,0.279,0.182,0.56,0.272,0.84
			c1.463,4.503,2.926,9.006,4.389,13.509c0.159,0,0.318,0,0.479,0c4.915,0,9.829,0,14.744,0c0.747,0,0.891,0.915,0.354,1.305
			c-0.268,0.194-0.531,0.388-0.798,0.58c-3.821,2.776-7.642,5.551-11.461,8.327c0.053,0.162,0.105,0.324,0.158,0.487
			C35.797,32.398,37.314,37.073,38.834,41.747z"/>
	</g>
</svg>